<svg xmlns="http://www.w3.org/2000/svg" viewBox="0 0 64 64">
  <rect width="64" height="64" rx="12" fill="#07131d"/>
  <path d="M8 22c6 0 6 4 12 4s6-4 12-4 6 4 12 4 6-4 12-4" fill="none" stroke="#32d3d8" stroke-width="5" stroke-linecap="round"/>
  <path d="M8 34c6 0 6 4 12 4s6-4 12-4 6 4 12 4 6-4 12-4" fill="none" stroke="#54d392" stroke-width="5" stroke-linecap="round"/>
  <path d="M8 46c6 0 6 4 12 4s6-4 12-4 6 4 12 4 6-4 12-4" fill="none" stroke="#4d8eff" stroke-width="5" stroke-linecap="round"/>
</svg>
